<?xml version="1.0" encoding="UTF-8"?>
<svg id="Layer_1" xmlns="http://www.w3.org/2000/svg" version="1.1" viewBox="0 0 512 512">
  <!-- Generator: Adobe Illustrator 30.2.1, SVG Export Plug-In . SVG Version: 2.1.1 Build 1)  -->
  <path d="M458.9,114.5c-11.1-15.1-26.6-32.8-43.6-49.9s-34.7-32.5-49.9-43.6C339.7,2.2,327.2,0,320,0H72C49.9,0,32,17.9,32,40v432c0,22.1,17.9,40,40,40h368c22.1,0,40-17.9,40-40V160c0-7.2-2.2-19.7-21.1-45.5ZM392.7,87.3c15.4,15.3,27.4,29.2,36.3,40.7h-77V51c11.5,8.9,25.3,20.9,40.7,36.3h0ZM448,472c0,4.3-3.7,8-8,8H72c-4.3,0-8-3.7-8-8V40c0-4.3,3.7-8,8-8,0,0,248,0,248,0v112c0,8.8,7.2,16,16,16h112v312Z"/>
  <path d="M368,416h-224c-8.8,0-16-7.2-16-16s7.2-16,16-16h224c8.8,0,16,7.2,16,16s-7.2,16-16,16Z"/>
  <path d="M368,352h-224c-8.8,0-16-7.2-16-16s7.2-16,16-16h224c8.8,0,16,7.2,16,16s-7.2,16-16,16Z"/>
  <path d="M368,288h-224c-8.8,0-16-7.2-16-16s7.2-16,16-16h224c8.8,0,16,7.2,16,16s-7.2,16-16,16Z"/>
</svg>