<!-- Generated by IcoMoon.io -->
<svg version="1.1" xmlns="http://www.w3.org/2000/svg" width="1024" height="1024" viewBox="0 0 1024 1024">
<g id="icomoon-ignore">
</g>
<path fill="#000" d="M984.033 764.186c-40.176-22.727-81.136-44.46-121.208-67.448-20.898-11.807-40.385-25.809-60.918-37.93-15.151-8.934-31.347-10.449-45.662 1.829-13.548 11.56-25.839 23.355-37.414 35.824l-0.255 0.277c-20.898 23.353-41.012 47.804-62.015 71.419-13.27 14.942-29.675 19.487-47.647 9.718-27.429-14.89-55.118-29.78-81.45-46.707-27.742-17.92-54.387-37.825-80.875-57.835-31.923-24.956-60.026-52.181-85.023-82.091l-0.711-0.874c-27.663-31.84-53.085-67.196-75.111-104.784l-1.793-3.311c-13.218-22.883-26.384-45.662-38.557-69.068-6.635-12.852-6.792-26.697 4.389-37.878 13.949-14.002 28.108-27.847 42.736-41.169 20.898-19.226 43.572-36.989 63.739-57.156 15.673-15.673 23.301-30.407 7.001-58.044-6.844-11.494-15.047-22.047-21.682-33.593-27.324-48.013-54.126-96.549-81.345-144.405-8.934-15.673-16.353-32.862-34.534-40.96h-22.883c-18.599 3.971-37.042 8.307-55.693 11.703-42.632 7.732-70.060 35.318-92.108 69.904-17.711 27.794-33.802 56.529-42.736 88.607-4.493 15.935-7.21 32.34-10.449 48.536-0.627 2.299-1.149 4.65-1.776 7.001v44.199c2.978 15.099 4.807 30.616 9.091 45.349 8.568 28.735 17.398 57.469 27.794 85.316 13.27 35.736 27.22 71.21 42.632 105.953 18.338 41.117 43.624 78.367 70.113 114.625 37.861 50.813 77.264 95.734 119.925 137.329l0.239 0.232c27.272 26.906 56.268 52.245 84.898 77.584 30.756 26.722 64.675 51.866 100.469 74.294l3.394 1.983c31.043 20.073 66.715 38.012 104.313 51.989l3.834 1.248c47.020 16.823 94.041 33.28 141.061 48.797 12.618 3.568 28.302 6.836 44.305 9.114l2.036 0.238h44.095c12.225-2.351 24.555-4.389 36.571-7.158 37.095-8.58 69.775-23.169 98.704-42.86l-1.006 0.646c18.57-12.78 34.559-25.101 49.87-38.19l-0.812 0.678c16.353-13.688 23.406-33.176 28.369-53.133s8.568-39.863 12.8-59.82c0.319-1.137 0.729-2.126 1.239-3.051l-0.037 0.073v-22.936c-2.050-4.363-4.566-8.116-7.559-11.43l0.036 0.040c-9.507-7.813-20.085-15.297-31.187-21.999l-1.205-0.675z"></path>
</svg>
