<?xml version="1.0" encoding="UTF-8"?>
<svg id="Layer_1" xmlns="http://www.w3.org/2000/svg" version="1.1" viewBox="0 0 1024 1024">
  <!-- Generator: Adobe Illustrator 30.2.1, SVG Export Plug-In . SVG Version: 2.1.1 Build 1)  -->
  <path d="M984,764.2c-40.2-22.7-81.1-44.5-121.2-67.4-20.9-11.8-40.4-25.8-60.9-37.9-15.2-8.9-31.3-10.4-45.7,1.8-13.5,11.6-25.8,23.4-37.4,35.8l-.3.3c-20.9,23.4-41,47.8-62,71.4-13.3,14.9-29.7,19.5-47.6,9.7-27.4-14.9-55.1-29.8-81.5-46.7-27.7-17.9-54.4-37.8-80.9-57.8-31.9-25-60-52.2-85-82.1l-.7-.9c-27.7-31.8-53.1-67.2-75.1-104.8l-1.8-3.3c-13.2-22.9-26.4-45.7-38.6-69.1-6.6-12.9-6.8-26.7,4.4-37.9,13.9-14,28.1-27.8,42.7-41.2,20.9-19.2,43.6-37,63.7-57.2s23.3-30.4,7-58c-6.8-11.5-15-22-21.7-33.6-27.3-48-54.1-96.5-81.3-144.4C251.3,25.3,243.9,8.1,225.7,0h-22.9c-18.6,4-37,8.3-55.7,11.7-42.6,7.7-70.1,35.3-92.1,69.9-17.7,27.8-33.8,56.5-42.7,88.6-4.5,15.9-7.2,32.3-10.4,48.5-.6,2.3-1.1,4.6-1.8,7v44.2c3,15.1,4.8,30.6,9.1,45.3,8.6,28.7,17.4,57.5,27.8,85.3,13.3,35.7,27.2,71.2,42.6,106,18.3,41.1,43.6,78.4,70.1,114.6,37.9,50.8,77.3,95.7,119.9,137.3l.2.2c27.3,26.9,56.3,52.2,84.9,77.6,30.8,26.7,64.7,51.9,100.5,74.3l3.4,2c31,20.1,66.7,38,104.3,52l3.8,1.2c47,16.8,94,33.3,141.1,48.8,12.6,3.6,28.3,6.8,44.3,9.1l2,.2h44.1c12.2-2.4,24.6-4.4,36.6-7.2,37.1-8.6,69.8-23.2,98.7-42.9l-1,.6c18.6-12.8,34.6-25.1,49.9-38.2l-.8.7c16.4-13.7,23.4-33.2,28.4-53.1s8.6-39.9,12.8-59.8c.3-1.1.7-2.1,1.2-3.1h0c0,0,0-22.9,0-22.9-2-4.4-4.6-8.1-7.6-11.4h0c-9.5-7.8-20.1-15.3-31.2-22l-1.2-.7h0Z"/>
</svg>